<svg width="512" height="482" viewBox="0 0 512 482" fill="none" xmlns="http://www.w3.org/2000/svg">
<g opacity="0.4">
<path d="M316.719 275.465C346.762 223.429 342.291 179.031 332.772 161.026C414.825 170.035 457.678 204.182 468.849 220.13C461.309 225.97 436.162 239.204 395.892 245.422C456.226 264.132 498.233 224.585 511.694 202.472C492.282 193.581 442.156 176.224 407.723 156.344C361.353 129.572 332.151 134.026 317.232 132.594C318.994 122.723 309.004 94.623 254.947 61.1894C236.352 47.6736 214.865 46.3874 161.047 0.0259762C125.434 57.8593 158.622 104.496 179.668 120.585C171.536 109.403 158.133 77.9893 169.585 41.7899C229.937 56.6187 273.999 110.413 288.486 135.457C268.26 135.594 226.897 155.497 201.317 199.803C159.175 272.796 167.679 351.117 177.713 381.466C209.178 366.273 275.189 347.396 316.719 275.465Z" fill="#32B2F0"/>
</g>
</svg>
