<svg width="32" height="32" viewBox="0 0 32 32" fill="none" xmlns="http://www.w3.org/2000/svg">
<path fill-rule="evenodd" clip-rule="evenodd" d="M15.668 10.6685C15.9332 10.6685 16.1875 10.7738 16.3751 10.9614C16.5626 11.1489 16.668 11.4032 16.668 11.6685V21.6685C16.668 21.9337 16.5626 22.188 16.3751 22.3756C16.1875 22.5631 15.9332 22.6685 15.668 22.6685C15.4028 22.6685 15.1484 22.5631 14.9609 22.3756C14.7733 22.188 14.668 21.9337 14.668 21.6685V11.6685C14.668 11.4032 14.7733 11.1489 14.9609 10.9614C15.1484 10.7738 15.4028 10.6685 15.668 10.6685V10.6685Z" fill="#F5FCFF"/>
<path fill-rule="evenodd" clip-rule="evenodd" d="M14.9603 8.96047C15.0531 8.86735 15.1635 8.79346 15.285 8.74305C15.4065 8.69264 15.5367 8.66669 15.6683 8.66669C15.7998 8.66669 15.93 8.69264 16.0515 8.74305C16.173 8.79346 16.2834 8.86735 16.3763 8.96047L22.3763 14.9605C22.564 15.1482 22.6695 15.4029 22.6695 15.6685C22.6695 15.934 22.564 16.1887 22.3763 16.3765C22.1885 16.5642 21.9338 16.6697 21.6683 16.6697C21.4027 16.6697 21.148 16.5642 20.9603 16.3765L15.6683 11.0825L10.3763 16.3765C10.2833 16.4694 10.1729 16.5432 10.0514 16.5935C9.92994 16.6438 9.79974 16.6697 9.66826 16.6697C9.53677 16.6697 9.40657 16.6438 9.28509 16.5935C9.16361 16.5432 9.05323 16.4694 8.96026 16.3765C8.86728 16.2835 8.79353 16.1731 8.74321 16.0516C8.69289 15.9302 8.66699 15.8 8.66699 15.6685C8.66699 15.537 8.69289 15.4068 8.74321 15.2853C8.79353 15.1638 8.86728 15.0534 8.96026 14.9605L14.9603 8.96047V8.96047Z" fill="#F5FCFF"/>
</svg>
