<svg width="24" height="24" viewBox="0 0 24 24" fill="none" xmlns="http://www.w3.org/2000/svg">
<g clip-path="url(#clip0_110_51)">
<path d="M12.3783 18.5067L12 18.2763L11.6217 18.5067L4.72727 22.7056V4.51136C4.72727 3.83931 4.99039 3.19694 5.45534 2.725C5.91993 2.25342 6.54772 1.99052 7.19999 1.99052H16.8C17.4522 1.99052 18.08 2.25342 18.5446 2.725C19.0096 3.19694 19.2727 3.83931 19.2727 4.51136V22.7056L12.3783 18.5067ZM4.87272 21.1319V22.4264L5.97829 21.7531L12 18.0857L18.0217 21.7531L19.1272 22.4264V21.1319V4.51136C19.1272 3.89122 18.8846 3.29433 18.4494 2.85257C18.0138 2.41044 17.4207 2.16003 16.8 2.16003H7.19999C6.57923 2.16003 5.98613 2.41044 5.55054 2.85257C5.11532 3.29433 4.87272 3.89122 4.87272 4.51136V21.1319ZM15.6945 9.03786L15.6948 9.03842C16.0659 9.766 15.985 10.6628 15.0947 11.835L15.0933 11.8369C14.4164 12.7339 13.4415 13.6539 12.0015 14.7447C10.5612 13.6523 9.58638 12.7242 8.90739 11.8342C8.01466 10.6623 7.93403 9.76572 8.30502 9.03842L8.30531 9.03786C8.52562 8.60503 9.27582 8.11401 10.2695 8.38643C10.7383 8.51625 11.1409 8.79259 11.4157 9.16325L11.9999 9.95131L12.5841 9.16325C12.8591 8.79239 13.2619 8.51595 13.7311 8.38622L13.7329 8.38572C14.7193 8.11022 15.4729 8.60259 15.6945 9.03786Z" stroke="#F5FCFF" stroke-width="1.45454"/>
</g>
<defs>
<clipPath id="clip0_110_51">
<rect width="24" height="24" fill="white"/>
</clipPath>
</defs>
</svg>
