<svg width="16" height="16" viewBox="0 0 16 16" fill="none" xmlns="http://www.w3.org/2000/svg">
<path d="M14 13.3333V3.99998C14 3.26465 13.402 2.66665 12.6667 2.66665H11.3333V1.33331H10V2.66665H6V1.33331H4.66667V2.66665H3.33333C2.598 2.66665 2 3.26465 2 3.99998V13.3333C2 14.0686 2.598 14.6666 3.33333 14.6666H12.6667C13.402 14.6666 14 14.0686 14 13.3333ZM6 12H4.66667V10.6666H6V12ZM6 9.33331H4.66667V7.99998H6V9.33331ZM8.66667 12H7.33333V10.6666H8.66667V12ZM8.66667 9.33331H7.33333V7.99998H8.66667V9.33331ZM11.3333 12H10V10.6666H11.3333V12ZM11.3333 9.33331H10V7.99998H11.3333V9.33331ZM12.6667 5.99998H3.33333V4.66665H12.6667V5.99998Z" fill="#303B40"/>
</svg>
