<svg width="72" height="72" viewBox="0 0 72 72" fill="none" xmlns="http://www.w3.org/2000/svg">
<path d="M68.8075 17.1115C67.8167 16.331 65.1599 15.7046 63.1713 15.2381L60.4799 14.8781V8.37216L61.858 8.35056C63.1497 9.00576 65.0102 10.08 65.1067 11.52H70.2964C70.1999 8.64 68.0126 6.82272 66.0657 5.37984C64.774 4.42224 63.3599 3.91104 60.4799 3.60144V0H57.5999V3.49056C54.7199 3.76704 53.7897 4.48416 52.4894 5.65488C50.7887 7.1856 50.0313 9.10656 50.0313 11.4192C50.0313 13.9536 50.7556 15.8155 52.4966 17.0078C53.47 17.6832 54.7199 18.311 57.5999 18.8928V25.9416C56.1599 25.6867 56.1571 25.7515 55.6487 25.1482C55.1591 24.5635 55.0252 23.04 54.8582 23.04H49.7087C49.7087 25.92 50.4878 27.2995 52.4375 28.836C53.843 29.9434 54.7199 30.1392 57.5999 30.4301V33.12H60.4799V30.4762C63.3599 30.1982 65.8065 29.4653 67.2134 28.2643C69.0393 26.7048 70.5326 24.745 70.5326 22.3862C70.5311 20.0851 70.3468 18.3283 68.8075 17.1115ZM56.1859 13.0997C55.3478 12.6432 55.0252 11.952 55.0252 11.029C55.0252 10.0238 55.3031 9.2376 56.1527 8.676C56.6006 8.3808 56.1599 8.16624 57.5999 8.02368V13.6973C56.1599 13.4784 56.5027 13.2797 56.1859 13.0997ZM62.4398 25.8005C62.1979 25.884 60.4799 25.9502 60.4799 26.0093V20.0088C63.3599 20.2565 63.1382 20.5229 63.6163 20.8123C64.3665 21.2789 64.7438 21.9442 64.7438 22.7952C64.7438 24.2582 63.9734 25.2619 62.4398 25.8005ZM55.4687 43.2H54.6724L45.8251 27.18C45.4435 26.4874 44.4815 25.92 43.6895 25.92H16.8465C16.0545 25.92 15.0926 26.4874 14.711 27.18L5.86362 43.2H5.06874C3.4833 43.2 1.43994 44.496 1.43994 46.08V60.48C1.43994 62.064 3.4833 63.36 5.06874 63.36H7.19994V67.68C7.19994 70.056 9.89274 72 12.2687 72H13.7087C16.0847 72 17.2799 70.056 17.2799 67.68V63.36H41.7599V67.68C41.7599 70.056 44.4513 72 46.8287 72H48.2687C50.6447 72 51.8399 70.056 51.8399 67.68V63.36H55.4687C57.0527 63.36 57.5999 62.064 57.5999 60.48V46.08C57.5999 44.496 57.0513 43.2 55.4687 43.2ZM10.1087 54.72C9.15396 54.72 8.23829 54.3407 7.56316 53.6656C6.88803 52.9905 6.50874 52.0748 6.50874 51.12C6.50874 50.1652 6.88803 49.2495 7.56316 48.5744C8.23829 47.8993 9.15396 47.52 10.1087 47.52C11.0635 47.52 11.9792 47.8993 12.6543 48.5744C13.3295 49.2495 13.7087 50.1652 13.7087 51.12C13.7087 52.0748 13.3295 52.9905 12.6543 53.6656C11.9792 54.3407 11.0635 54.72 10.1087 54.72ZM12.9887 43.2L18.8251 31.5288C19.1779 30.8189 20.1167 30.24 20.9087 30.24H39.6287C40.4207 30.24 41.3582 30.8189 41.7124 31.5288L47.5487 43.2H12.9887ZM50.4287 54.72C49.474 54.72 48.5583 54.3407 47.8832 53.6656C47.208 52.9905 46.8287 52.0748 46.8287 51.12C46.8287 50.1652 47.208 49.2495 47.8832 48.5744C48.5583 47.8993 49.474 47.52 50.4287 47.52C51.3835 47.52 52.2992 47.8993 52.9743 48.5744C53.6495 49.2495 54.0287 50.1652 54.0287 51.12C54.0287 52.0748 53.6495 52.9905 52.9743 53.6656C52.2992 54.3407 51.3835 54.72 50.4287 54.72Z" fill="#3CC08E"/>
</svg>
