<svg width="96" height="96" viewBox="0 0 96 96" fill="none" xmlns="http://www.w3.org/2000/svg">
<g filter="url(#filter0_d_53_829)">
<circle cx="48" cy="46" r="40" fill="#59C7FC"/>
</g>
<path fill-rule="evenodd" clip-rule="evenodd" d="M64 34C64 32.9391 63.5786 31.9217 62.8284 31.1716C62.0783 30.4214 61.0609 30 60 30H36C34.9391 30 33.9217 30.4214 33.1716 31.1716C32.4214 31.9217 32 32.9391 32 34V50C32 51.0609 32.4214 52.0783 33.1716 52.8284C33.9217 53.5786 34.9391 54 36 54H55.172C55.7024 54.0001 56.211 54.2109 56.586 54.586L62.292 60.292C62.4317 60.4321 62.6099 60.5276 62.8039 60.5664C62.998 60.6052 63.1991 60.5855 63.382 60.5099C63.5649 60.4344 63.7212 60.3062 63.8312 60.1418C63.9412 59.9773 64 59.7839 64 59.586V34ZM42 42C42 42.5304 41.7893 43.0391 41.4142 43.4142C41.0391 43.7893 40.5304 44 40 44C39.4696 44 38.9609 43.7893 38.5858 43.4142C38.2107 43.0391 38 42.5304 38 42C38 41.4696 38.2107 40.9609 38.5858 40.5858C38.9609 40.2107 39.4696 40 40 40C40.5304 40 41.0391 40.2107 41.4142 40.5858C41.7893 40.9609 42 41.4696 42 42ZM50 42C50 42.5304 49.7893 43.0391 49.4142 43.4142C49.0391 43.7893 48.5304 44 48 44C47.4696 44 46.9609 43.7893 46.5858 43.4142C46.2107 43.0391 46 42.5304 46 42C46 41.4696 46.2107 40.9609 46.5858 40.5858C46.9609 40.2107 47.4696 40 48 40C48.5304 40 49.0391 40.2107 49.4142 40.5858C49.7893 40.9609 50 41.4696 50 42ZM56 44C56.5304 44 57.0391 43.7893 57.4142 43.4142C57.7893 43.0391 58 42.5304 58 42C58 41.4696 57.7893 40.9609 57.4142 40.5858C57.0391 40.2107 56.5304 40 56 40C55.4696 40 54.9609 40.2107 54.5858 40.5858C54.2107 40.9609 54 41.4696 54 42C54 42.5304 54.2107 43.0391 54.5858 43.4142C54.9609 43.7893 55.4696 44 56 44Z" fill="#F5FCFF"/>
<defs>
<filter id="filter0_d_53_829" x="0" y="0" width="96" height="96" filterUnits="userSpaceOnUse" color-interpolation-filters="sRGB">
<feFlood flood-opacity="0" result="BackgroundImageFix"/>
<feColorMatrix in="SourceAlpha" type="matrix" values="0 0 0 0 0 0 0 0 0 0 0 0 0 0 0 0 0 0 127 0" result="hardAlpha"/>
<feOffset dy="2"/>
<feGaussianBlur stdDeviation="4"/>
<feColorMatrix type="matrix" values="0 0 0 0 0.501961 0 0 0 0 0.501961 0 0 0 0 0.501961 0 0 0 0.25 0"/>
<feBlend mode="normal" in2="BackgroundImageFix" result="effect1_dropShadow_53_829"/>
<feBlend mode="normal" in="SourceGraphic" in2="effect1_dropShadow_53_829" result="shape"/>
</filter>
</defs>
</svg>
