<svg width="72" height="72" viewBox="0 0 72 72" fill="none" xmlns="http://www.w3.org/2000/svg">
<path d="M62.5 14.8C57.9679 13.5904 53.5403 12.0187 49.26 10.1C45.0489 8.27323 40.9837 6.12697 37.1 3.68L36 3L34.92 3.7C31.0363 6.14697 26.9711 8.29323 22.76 10.12C18.4726 12.0329 14.0383 13.5979 9.5 14.8L8 15.18V31.86C8 58.64 35.06 68.66 35.32 68.76L36 69L36.68 68.76C36.96 68.76 64 58.66 64 31.86V15.18L62.5 14.8ZM53.36 28.1L31.02 49.8L18.38 37.14C17.8496 36.6096 17.5516 35.8901 17.5516 35.14C17.5516 34.3899 17.8496 33.6704 18.38 33.14C18.9104 32.6096 19.6299 32.3116 20.38 32.3116C21.1301 32.3116 21.8496 32.6096 22.38 33.14L31.08 42L49.46 24C49.7226 23.7374 50.0345 23.529 50.3776 23.3869C50.7208 23.2447 51.0886 23.1716 51.46 23.1716C51.8314 23.1716 52.1992 23.2447 52.5424 23.3869C52.8856 23.529 53.1974 23.7374 53.46 24C53.7226 24.2626 53.931 24.5744 54.0731 24.9176C54.2153 25.2608 54.2884 25.6286 54.2884 26C54.2884 26.3714 54.2153 26.7392 54.0731 27.0824C53.931 27.4256 53.7226 27.7374 53.46 28L53.36 28.1Z" fill="#3CC08E"/>
</svg>
