<svg width="72" height="72" viewBox="0 0 72 72" fill="none" xmlns="http://www.w3.org/2000/svg">
<path d="M63 24.0001C64.5913 24.0001 66.1174 24.6322 67.2426 25.7574C68.3679 26.8826 69 28.4088 69 30.0001V42.0001C69 43.5914 68.3679 45.1175 67.2426 46.2427C66.1174 47.3679 64.5913 48.0001 63 48.0001H59.814C59.0826 53.8 56.2598 59.1336 51.8752 63.0001C47.4907 66.8665 41.8458 69 36 69.0001V63.0001C40.7739 63.0001 45.3523 61.1036 48.7279 57.728C52.1036 54.3523 54 49.774 54 45.0001V27.0001C54 22.2262 52.1036 17.6478 48.7279 14.2721C45.3523 10.8965 40.7739 9.00007 36 9.00007C31.2261 9.00007 26.6477 10.8965 23.2721 14.2721C19.8964 17.6478 18 22.2262 18 27.0001V48.0001H9C7.4087 48.0001 5.88258 47.3679 4.75736 46.2427C3.63214 45.1175 3 43.5914 3 42.0001V30.0001C3 28.4088 3.63214 26.8826 4.75736 25.7574C5.88258 24.6322 7.4087 24.0001 9 24.0001H12.186C12.9181 18.2008 15.7412 12.8679 20.1257 9.00209C24.5102 5.1363 30.1547 3.0033 36 3.0033C41.8453 3.0033 47.4898 5.1363 51.8743 9.00209C56.2588 12.8679 59.0819 18.2008 59.814 24.0001H63ZM23.28 47.3551L26.46 42.2671C29.3192 44.0582 32.6261 45.0055 36 45.0001C39.3739 45.0055 42.6808 44.0582 45.54 42.2671L48.72 47.3551C44.9078 49.7435 40.4986 51.007 36 51.0001C31.5014 51.007 27.0922 49.7435 23.28 47.3551Z" fill="#3CC08E"/>
</svg>
