<svg width="1440" height="353" viewBox="0 0 1440 353" fill="none" xmlns="http://www.w3.org/2000/svg">
<path d="M1440.5 0.5L-0.5 80V285.5H1440.5V0.5Z" fill="url(#paint0_linear_464_0)"/>
<path d="M358.614 182.815C358.614 145.868 342.583 123.6 331.978 116.938C378.442 96.5091 411.761 101.518 422.613 106.576C420.393 112.004 411.071 126.783 391.538 142.475C429.42 133.889 439.63 99.914 440 84C426.929 85.2336 394.899 91.4019 370.452 91.4019C337.527 91.4019 323.346 102.751 314.961 106.576C312.865 100.778 298.906 88.8852 259.84 87.7009C245.783 86.2206 233.945 92.1421 191.032 84C189.848 125.747 221.86 140.378 238.014 142.475C230.245 139.021 213.45 126.413 208.419 103.615C245.117 92.9563 285.119 108.056 300.533 116.938C289.805 123.23 273.898 146.546 273.898 178.004C273.898 229.83 302.506 268.923 317.181 282C329.265 264.236 358.614 233.888 358.614 182.815Z" fill="#32B2F0"/>
<path d="M1439.5 251L-0.5 144V352.5H1439.5V251Z" fill="#109BDF"/>
<defs>
<linearGradient id="paint0_linear_464_0" x1="1.45455e-08" y1="143" x2="1441" y2="143" gradientUnits="userSpaceOnUse">
<stop stop-color="#59C7FC"/>
<stop offset="1" stop-color="#109BDF"/>
</linearGradient>
</defs>
</svg>
