<svg width="24" height="24" viewBox="0 0 24 24" fill="none" xmlns="http://www.w3.org/2000/svg">
<path d="M11.9998 0C11.3537 0 10.8866 0.271385 10.702 0.548308C10.6097 0.640615 10.5349 0.830769 10.4426 0.923077H9.23058C8.2152 0.923077 7.38443 1.75385 7.38443 2.76923H5.53827C3.96904 2.76923 2.76904 3.96923 2.76904 5.53846V21.2308C2.76904 22.8 3.96904 24 5.53827 24H18.4614C20.0306 24 21.2306 22.8 21.2306 21.2308V5.53846C21.2306 3.96923 20.0306 2.76923 18.4614 2.76923H16.6152C16.6152 1.75385 15.7844 0.923077 14.769 0.923077H13.557C13.4647 0.830769 13.3909 0.640615 13.2986 0.548308C13.113 0.271385 12.646 0 11.9998 0ZM9.23058 2.76923H14.769V4.61538H9.23058V2.76923ZM5.53827 5.53846H7.67335C7.95027 6.09231 8.58443 6.46154 9.23058 6.46154H14.769C15.4152 6.46154 16.0494 6.09231 16.3272 5.53846H18.4614V21.2308H5.53827V5.53846Z" fill="#109BDF"/>
</svg>
