<svg width="16" height="16" viewBox="0 0 16 16" fill="none" xmlns="http://www.w3.org/2000/svg">
<path fill-rule="evenodd" clip-rule="evenodd" d="M4.64608 14.354C4.59952 14.3075 4.56258 14.2524 4.53737 14.1916C4.51216 14.1309 4.49919 14.0658 4.49919 14C4.49919 13.9342 4.51216 13.8691 4.53737 13.8084C4.56258 13.7476 4.59952 13.6924 4.64608 13.646L10.2931 7.99999L4.64608 2.35399C4.5522 2.2601 4.49945 2.13277 4.49945 1.99999C4.49945 1.86722 4.5522 1.73988 4.64608 1.64599C4.73997 1.5521 4.86731 1.49936 5.00008 1.49936C5.13286 1.49936 5.2602 1.5521 5.35408 1.64599L11.3541 7.64599C11.4006 7.69244 11.4376 7.74761 11.4628 7.80836C11.488 7.8691 11.501 7.93422 11.501 7.99999C11.501 8.06576 11.488 8.13088 11.4628 8.19162C11.4376 8.25237 11.4006 8.30755 11.3541 8.35399L5.35408 14.354C5.30764 14.4006 5.25246 14.4375 5.19172 14.4627C5.13097 14.4879 5.06585 14.5009 5.00008 14.5009C4.93432 14.5009 4.86919 14.4879 4.80845 14.4627C4.7477 14.4375 4.69253 14.4006 4.64608 14.354Z" fill="#109BDF"/>
</svg>
