<svg width="16" height="23" viewBox="0 0 16 23" fill="none" xmlns="http://www.w3.org/2000/svg">
<path d="M8.37827 17.5067L7.99998 17.2763L7.62169 17.5067L0.727271 21.7056V3.51136C0.727271 2.83931 0.990385 2.19694 1.45534 1.725C1.91993 1.25342 2.54772 0.990515 3.19999 0.990515H12.8C13.4522 0.990515 14.08 1.25342 14.5446 1.725C15.0096 2.19694 15.2727 2.83931 15.2727 3.51136V21.7056L8.37827 17.5067ZM0.872725 20.1319V21.4264L1.97829 20.7531L7.99998 17.0857L14.0217 20.7531L15.1272 21.4264V20.1319V3.51136C15.1272 2.89122 14.8846 2.29433 14.4494 1.85257C14.0138 1.41044 13.4207 1.16003 12.8 1.16003H3.19999C2.57923 1.16003 1.98613 1.41044 1.55054 1.85257C1.11532 2.29433 0.872725 2.89122 0.872725 3.51136V20.1319ZM11.6945 8.03786L11.6948 8.03842C12.0659 8.766 11.985 9.66282 11.0947 10.835L11.0933 10.8369C10.4164 11.7339 9.44151 12.6539 8.00147 13.7447C6.56124 12.6523 5.58638 11.7242 4.90739 10.8342C4.01466 9.66226 3.93403 8.76572 4.30502 8.03842L4.30531 8.03786C4.52562 7.60503 5.27582 7.11401 6.26952 7.38643C6.73833 7.51625 7.14088 7.79259 7.41567 8.16325L7.9999 8.95131L8.58413 8.16325C8.85907 7.79239 9.26191 7.51595 9.73106 7.38622L9.73287 7.38572C10.7193 7.11022 11.4729 7.60259 11.6945 8.03786Z" stroke="#109BDF" stroke-width="1.45454"/>
</svg>
